<?xml version="1.0" encoding="UTF-8"?>
<svg version="1.1" viewBox="0 0 2000 2000" width="1280" height="1280" xmlns="http://www.w3.org/2000/svg">
<path transform="translate(0)" d="m0 0h2e3v2e3h-2e3z"/>
<path transform="translate(0)" d="m0 0h7v1336l11 8 44 29 48 32 41 27 44 29 30 20 44 29 39 26 44 29 84 56 16 10 43 29 25 16 43 29 17 11 27 18 44 29 69 46 16 10 43 29 25 16 43 29 17 11 27 18 44 29 69 46 3 3h-1007z"/>
<path transform="translate(1993)" d="m0 0h7v2e3h-976l4-4 22-15 12-8 44-30 44-30 24-16 14-10 15-10 16-11 31-21 24-16 11-8 15-10 19-13 31-21 19-13 69-47 24-16 14-10 18-12 44-30 24-16 11-8 15-10 19-13 31-21 19-13 50-34 31-21 19-13 69-47 24-16 11-8 15-10 19-13 56-38 38-26 3-5z"/>
<path transform="translate(7)" d="m0 0h1986l1 17-1 1320-3 5-11 8-24 16-14 10-15 10-47 32-24 16-14 10-15 10-19 13-69 47-25 17-56 38-19 13-47 32-24 16-14 10-15 10-19 13-25 17-28 19-19 13-24 16-14 10-15 10-44 30-47 32-24 16-14 10-15 10-47 32-24 16-11 8-15 10-22 15-44 30-25 17-12 8-16 11-10 7h-17l-111-74-23-15-27-18-44-29-27-18-44-29-27-18-23-15-69-46-23-15-27-18-44-29-27-18-44-29-27-18-23-15-69-46-23-15-15-10-44-29-21-14-44-29-30-20-38-25-105-70-2-4v-1328zm224 42-175 1v1268l33 22 35 23 33 22 25 16 43 29 17 11 27 18 29 19 44 29 63 42 23 15 42 28 20 13 48 32 19 12 43 29 20 13 15 10 38 25 33 22 32 21 42 28 25 16 43 29 20 13 15 10 38 25 57 38 20 13 15 10 6-1 16-11 66-45 33-22 11-8 21-14 32-22 24-16 23-16 21-14 16-11 28-19 24-16 11-8 21-14 16-11 28-19 24-16 11-8 21-14 19-13 25-17 24-16 11-8 21-14 44-30 24-16 11-8 21-14 44-30 24-16 11-8 21-14 44-30 25-17 56-38 19-13 33-22 1-2v-1269l-1-2z" fill="#FEFEFE"/>
<path transform="translate(1009,243)" d="m0 0h197l1 1v13l-4 3-16 8-7 6-8 13-6 15-4 20-2 16-1 16v354l5-5h2l2-4h2l2-4h2l2-4 5-4 7-8 33-33 7-8 42-42 7-8 37-37 7-8 52-52 7-8 29-29 7-8 47-47 7-8 13-13 7-8 12-13 12-14 15-20 11-18 6-14 2-10v-8l-4-8-8-6-8-3-7-2-1-9 1-2h170v15l-8 3-36 12-25 12-17 9-16 11-20 14-11 10-8 7-10 9-8 8-7 8-51 51-7 8-45 45-7 8-31 31-1 2h-2v2h-2l-2 4-53 53-2 3h-2l-2 4-40 40-2 3h-2v2h-2v2h-2v2l37-1h43l30 2 17 3 23 6 15 6 20 11 12 9 11 9 13 14 15 20 13 21 15 29 13 27 16 38 40 98 11 27 12 28 11 24 16 33 14 23 10 14 7 8 13 9 11 5 4 1h29l1 1v9l-2 6-12 3-20 3-25 2h-31l-17-2-15-4-16-7-10-7-12-10-7-8-13-17-15-26-11-22-14-31-17-41-20-49-25-62-15-36-16-35-12-24-12-20-12-17-12-13-12-10-15-10-15-7-13-4-18-3-10-1-48-1-8 7-13 13-7 8-14 14-7 8-21 21-7 8-14 14v247l2 31 4 26 6 18 6 11 5 6 11 7 14 7v13l-2 2h-196l-2-7 1-8 5-3 13-7 8-7 7-11 6-14 5-23 3-32 1-45-1-581-2-32-4-25-5-16-6-12-7-9-11-7-12-6v-14z" fill="#FEFEFE"/>
<path transform="translate(620,234)" d="m0 0h30l28 1 36 4 29 5 30 7 31 9 22 8 27 12 16 8 5 4 5 139-3 3-9 2-5-8-11-22-10-17-15-23-14-17-7-8-19-19-14-11-12-9-20-12-21-11-21-8-23-7-21-5-22-3-13-1h-41l-25 3-19 4-21 7-29 14-12 8-5 4h-2l-2 4h-2v2l-6 5h-2v2h-2v2h-2l-2 4-9 11-8 13-10 21-5 17-3 15-1 12v17l2 20 5 20 6 16 10 18 13 16 9 9v2h2v2h2v2l4 2 7 7 18 13 19 12 21 12 22 11 36 16 23 10 56 22 30 13 26 11 28 13 24 12 17 10 18 12 16 12 13 11 12 11 13 13 13 18 9 16 8 17 7 21 4 23 2 22v12l-3 29-5 24-9 26-8 17-13 22-13 17-6 8h-2l-2 4-11 11-11 9-9 8-19 13-24 14-18 10-28 10-33 9-19 4-27 3h-51l-38-3-30-4-48-10-39-12-26-9-26-11-32-16-18-11-14-10-1-2-1-13-5-149v-7l2-2 11-1 3 5 12 29 12 25 12 22 9 14 10 14 10 13 13 16 12 13 11 11 11 9 20 15 21 13 15 8 24 10 24 8 26 6 25 4 25 2h41l19-3 26-7 15-6 25-13 15-11 13-11 9-9 10-13 9-15 7-15 6-18 4-21 1-9v-15l-3-23-6-21-9-20-10-16-13-16-17-17-11-9-20-15-20-12-17-10-18-10-23-11-28-13-37-15-30-12-38-16-35-16-17-8-22-12-20-12-16-12-14-11-13-12-8-8-11-14-10-15-8-15-8-21-6-25-2-14-1-13v-33l3-24 6-24 6-17 7-16 10-17 10-14 8-10 8-8 7-8 9-8 16-12 17-11 18-10 17-8 24-9 24-7 23-5 27-4 22-2z" fill="#FEFEFE"/>
<path transform="translate(395,311)" d="m0 0 4 1-15 16-13 17-8 13-6 10-9 21-7 23-4 19-2 18v33l2 21 5 24 7 21 8 17 10 16 11 14 11 12 7 7 11 9 17 13 15 10 21 12 38 19 36 16 41 17 43 17 25 11 27 13 16 8 17 9 25 15 12 8 17 13 14 12 17 17 12 16 10 17 7 16 6 21 3 23v15l-3 21-5 19-8 19-9 16-9 12-11 12-12 11-18 13-17 9-2-1 3-5 9-10 12-20 8-16 6-18 4-21 1-7v-20l-4-25-8-24-9-17-11-16-9-11-8-9-8-7-14-12-18-13-21-13-19-11-27-14-33-15-25-11-65-26-34-15-28-13-26-13-17-10-12-8-14-10-16-13-10-9-9-9-9-11-12-18-8-16-6-14-6-22-4-25-1-14v-25l2-19 5-25 9-27 7-15 9-16 10-14 9-11 23-23 14-11 12-8 8-5z" fill="#4F4F4F"/>
<path transform="translate(958,275)" d="m0 0h75l4 2 6 10 6 17 3 14 3 26 1 21 1 581-1 45-3 32-5 23-7 16-8 11-10 8-14 7-1 8 1 6 131 1v1l-10 1 6 5 20 11 1 3-1 11-83 1h-70l-45-1-1-14 19-10 8-7 7-11 6-14 5-22 3-29 1-24v-587l-1-31-3-29-3-18-6-18-8-13-7-7-14-8-6-3z" fill="#505050"/>
<path transform="translate(1250,641)" d="m0 0 48 1 23 3 15 4 12 5 11 6 16 12 10 9 10 11 9 13 12 20 12 23 15 32 16 38 23 57 15 37 19 46 11 26 16 34 11 21 11 18 11 14 8 9 11 9 13 8 15 6 17 4 3 3 19 7 4 1 25 1v14l-18 4-38 4h-35l-20-3-15-5-14-7-11-8-11-10-9-11-9-13-12-21-11-21-15-33-6-15-5-11-11-27-15-36-11-27-17-42-13-31-15-33-8-16-9-17-12-19-10-13-9-10-10-9-16-11-17-8-20-5-20-3-27-1-4-2 9-9 7-8 14-14z" fill="#505050"/>
<path transform="translate(276,888)" d="m0 0 5 1 11 27 12 25 12 22 3 5 1-10h1l2 56 1 13 5 5 17 11 18 10 26 13 19 8 28 10 35 11 25 6 35 7 36 4 27 2h51l27-3 27-6 31-9 19-7 3 1-5 5-22 13-19 10-25 10-26 8-26 6-24 4-35 2h-22l-33-2-39-5-39-8-26-7-40-13-27-11-33-16-21-12-16-11-2-3-2-41-4-112v-18z" fill="#4F4F4F"/>
<path transform="translate(578,254)" d="m0 0h41l29 3 23 5 24 7 19 7 23 11 20 12 14 10 13 11 8 7 20 20 11 14 2 7 1 7 2 61v30l-8 3-4-1-10-19-10-18-13-21-12-17-13-16-24-24-11-9-14-10-15-9-23-12-15-6-24-8-24-6-26-4-13-1h-43l-30 4-20 5-8 3-7 1v-2l8-7 15-10 22-11 18-7 23-6 20-3z" fill="#4F4F4F"/>
<path transform="translate(1548,273)" d="m0 0h1v8l-3 13-8 16-10 16-11 14-9 11-12 13-9 10-11 12-11 11-7 8-47 47-7 8-29 29-7 8-52 52-7 8-37 37-7 8-42 42-7 8-33 33-5 6-7 6-5 6h-2l-2 4-4 2v-18l4-2 9-10 32-32 7-8 17-17 7-8 24-24 7-8 28-28 7-8 43-43 2-3h2l2-4 26-26 6-7 33-33 7-8 16-16 7-8 7-7 7-8 13-16 12-17 10-18 4-11 1-12-2-6-4-6-6-5-15-5-1-1v-11h78z" fill="#4F4F4F"/>
<path transform="translate(578,254)" d="m0 0h41l29 3 23 5 24 7 19 7 23 11-1 2-13-4-28-7-31-5-26-3-35-2h-32l-27 1-30 3-10 2v-2l20-8 23-6 20-3z" fill="#050505"/>
<path transform="translate(429,1083)" d="m0 0 8 1 35 11 25 6 35 7 36 4 27 2h65l-3 2-13 4-26 5-10 1h-39l-27-3-28-5-28-8-26-10-16-8-15-8z" fill="#050505"/>
<path transform="translate(1250,641)" d="m0 0 48 1 23 3 15 4 12 5 11 6-1 2-14-5-10-2-13-1-37-1h-27l-13 1-7 1 2-4 9-9z" fill="#040404"/>
<path transform="translate(1638,279)" d="m0 0h2l1 2v7l-1 2-25 8-14 5-9 2 2-3 6-3 4-1 1-2 16-8 14-8z" fill="#505050"/>
<path transform="translate(1634,278)" d="m0 0 2 1-4 4-15 8-8 4-9 5-6 3-2-1 15-10 23-12z" fill="#0F0F0F"/>
<path transform="translate(1161,701)" d="m0 0h5v2h-2l-2 4-4 2 1-6h2z" fill="#101010"/>
</svg>
